<mxfile host="app.diagrams.net" modified="2024-07-26T08:56:38.906Z" agent="Mozilla/5.0 (Windows NT 10.0; Win64; x64; rv:128.0) Gecko/20100101 Firefox/128.0" etag="gfmayG0Vik088wxId_Oj" version="24.7.1" type="device">
  <diagram name="Page-1" id="BQXbJMpqSJHoT8ljhsxK">
    <mxGraphModel dx="1104" dy="631" grid="0" gridSize="10" guides="1" tooltips="1" connect="1" arrows="1" fold="1" page="1" pageScale="1" pageWidth="1575" pageHeight="1181" math="0" shadow="0">
      <root>
        <mxCell id="0" />
        <mxCell id="1" parent="0" />
        <mxCell id="yovDsSiOg5S1OaYQO72h-1" value="" style="group;align=left;fontSize=8;fontColor=#000000;opacity=50;" parent="1" vertex="1" connectable="0">
          <mxGeometry x="225" y="134" width="807" height="657" as="geometry" />
        </mxCell>
        <mxCell id="yovDsSiOg5S1OaYQO72h-2" value="" style="rounded=0;whiteSpace=wrap;html=1;rotation=90;fontSize=8;opacity=50;fillColor=#f5f5f5;gradientColor=#b3b3b3;strokeColor=#666666;" parent="yovDsSiOg5S1OaYQO72h-1" vertex="1">
          <mxGeometry x="-81.93" y="129.93" width="528.87" height="270" as="geometry" />
        </mxCell>
        <mxCell id="yovDsSiOg5S1OaYQO72h-3" value="" style="rounded=0;whiteSpace=wrap;html=1;fontSize=8;fontColor=#000000;opacity=50;" parent="yovDsSiOg5S1OaYQO72h-1" vertex="1">
          <mxGeometry x="47" width="160" height="40" as="geometry" />
        </mxCell>
        <mxCell id="yovDsSiOg5S1OaYQO72h-4" value="" style="rounded=0;whiteSpace=wrap;html=1;fontSize=8;fontColor=#000000;opacity=50;" parent="yovDsSiOg5S1OaYQO72h-1" vertex="1">
          <mxGeometry x="207" width="110" height="40" as="geometry" />
        </mxCell>
        <mxCell id="yovDsSiOg5S1OaYQO72h-5" value="" style="rounded=0;whiteSpace=wrap;html=1;fontSize=8;fontColor=#000000;opacity=50;" parent="yovDsSiOg5S1OaYQO72h-1" vertex="1">
          <mxGeometry x="47" y="40" width="270" height="40" as="geometry" />
        </mxCell>
        <mxCell id="yovDsSiOg5S1OaYQO72h-6" value="Tache_mesure_radar_i" style="text;html=1;strokeColor=none;fillColor=none;align=center;verticalAlign=middle;whiteSpace=wrap;rounded=0;fontStyle=1;fontSize=8;fontColor=#000000;opacity=50;" parent="yovDsSiOg5S1OaYQO72h-1" vertex="1">
          <mxGeometry x="57" y="10" width="140" height="20" as="geometry" />
        </mxCell>
        <mxCell id="yovDsSiOg5S1OaYQO72h-7" value="Initialisation, Implémentation, Intégration, Calibration et Récupéation des&amp;nbsp; données&amp;nbsp; de mesure." style="text;html=1;strokeColor=none;fillColor=none;align=center;verticalAlign=middle;whiteSpace=wrap;rounded=0;fontSize=8;fontColor=#000000;opacity=50;" parent="yovDsSiOg5S1OaYQO72h-1" vertex="1">
          <mxGeometry x="57" y="50" width="250" height="20" as="geometry" />
        </mxCell>
        <mxCell id="yovDsSiOg5S1OaYQO72h-8" value="&lt;br&gt;&lt;div&gt;→ DelayUntil (periode)&lt;/div&gt;&lt;div&gt;&lt;br&gt;&lt;/div&gt;→ Afficher la version du logiciel.&amp;nbsp; &lt;br&gt;→ Créer une structure pour gérer les ressources.&amp;nbsp; &lt;br&gt;&lt;br&gt;---&amp;gt; Intégration et Implémentation&amp;nbsp;&amp;nbsp; &lt;br&gt;&lt;span style=&quot;white-space: pre;&quot;&gt;&#x9;&lt;/span&gt;→ Initialiser la structure HAL (contenant des gestionnaires &lt;span style=&quot;white-space: pre;&quot;&gt;&#x9;&lt;/span&gt;&lt;span style=&quot;white-space: pre;&quot;&gt;&#x9;&lt;/span&gt;pour SPI, UART, etc.) . &lt;br&gt;&lt;span style=&quot;white-space: pre;&quot;&gt;&#x9;&lt;/span&gt;→ Enregistrer les fonctions dans HAL (seule la prototype est &lt;span style=&quot;white-space: pre;&quot;&gt;&#x9;&lt;/span&gt;&lt;span style=&quot;white-space: pre;&quot;&gt;&#x9;&lt;/span&gt;disponible pour le moment) . &lt;br&gt;&lt;br&gt;→ Confirmer que l&#39;enregistrement de cette couche a bien été &lt;span style=&quot;white-space: pre;&quot;&gt;&#x9;&lt;/span&gt;réalisé.&lt;br&gt;→ Initialiser la partie configuration de la structure des ressources.&amp;nbsp; &lt;br&gt;&lt;br&gt;→ Choisir et appliquer les paramètres configurés.&amp;nbsp; &lt;br&gt;→ Créer un handle pour le détecteur de distance.&amp;nbsp; &lt;br&gt;→ Afficher toutes les configurations établies . &lt;br&gt;→ Créer une instance du capteur (utilisée pour communiquer &lt;span style=&quot;white-space: pre;&quot;&gt;&#x9;&lt;/span&gt;avec le radar).&amp;nbsp; &lt;br&gt;→ Constituer une structure pour stocker les résultats de la &lt;span style=&quot;white-space: pre;&quot;&gt;&#x9;&lt;/span&gt;calibration.&amp;nbsp; &lt;br&gt;→ Procéder à la calibration du radar (activation/désactivation, &lt;span style=&quot;white-space: pre;&quot;&gt;&#x9;&lt;/span&gt;etc.).&amp;nbsp; &lt;br&gt;&lt;div&gt;→ Réaliser une calibration complète (envoyer des signaux au &lt;span style=&quot;white-space: pre;&quot;&gt;&#x9;&lt;/span&gt;radar jusqu&#39;à réception d&#39;une réponse via interruption) .&amp;nbsp;&lt;/div&gt;&lt;div&gt;&lt;br&gt;&lt;/div&gt;&lt;div&gt;→ While(1){&lt;br&gt;&lt;div&gt;&lt;br&gt;&lt;/div&gt;&lt;span style=&quot;white-space: pre;&quot;&gt;&#x9;&lt;/span&gt;→ Créer la structure qui va contenir les résultats.&lt;br&gt;&lt;br&gt;&lt;span style=&quot;white-space: pre;&quot;&gt;&#x9;&lt;/span&gt;→ Récupérer les résultats.&lt;br&gt;&lt;br&gt;&lt;span style=&quot;white-space: pre;&quot;&gt;&#x9;&lt;/span&gt;→ En cas d&#39;échec, effectuer un nettoyage et envoyer un &lt;span style=&quot;white-space: pre;&quot;&gt;&#x9;&lt;/span&gt;&lt;span style=&quot;white-space: pre;&quot;&gt;&#x9;&lt;/span&gt;message &lt;span style=&quot;white-space: pre;&quot;&gt;&#x9;&lt;/span&gt;à l&#39;utilisateur.&lt;br&gt;&lt;br&gt;&lt;span style=&quot;white-space: pre;&quot;&gt;&#x9;&lt;/span&gt;→ Si le radar nécessite une calibration, en effectuer une (le &lt;span style=&quot;white-space: pre;&quot;&gt;&#x9;&lt;/span&gt;&lt;span style=&quot;white-space: pre;&quot;&gt;&#x9;&lt;/span&gt;flag &lt;span style=&quot;white-space: pre;&quot;&gt;&#x9;&lt;/span&gt;de calibration nécessaire est automatiquement mis &lt;span style=&quot;white-space: pre;&quot;&gt;&#x9;&lt;/span&gt;&lt;span style=&quot;white-space: pre;&quot;&gt;&#x9;&lt;/span&gt;à jour).&lt;br&gt;&lt;br&gt;&lt;span style=&quot;white-space: pre;&quot;&gt;&#x9;&lt;/span&gt;→ Afficher les résultats (optionnel).&lt;/div&gt;&lt;div&gt;&lt;br&gt;&lt;/div&gt;&lt;div&gt;}&lt;br&gt;&lt;/div&gt;&lt;div&gt;→ Effectuer un nettoyage. &lt;br&gt;&lt;/div&gt;&lt;div&gt;&lt;br&gt;&lt;/div&gt;" style="text;html=1;strokeColor=none;fillColor=none;align=left;verticalAlign=top;whiteSpace=wrap;rounded=0;fontSize=8;fontColor=#000000;opacity=50;" parent="yovDsSiOg5S1OaYQO72h-1" vertex="1">
          <mxGeometry x="56" y="70" width="257" height="496" as="geometry" />
        </mxCell>
        <mxCell id="yovDsSiOg5S1OaYQO72h-9" value="&lt;div&gt;HighPriorityTask&amp;nbsp; : +2&lt;/div&gt;&lt;div&gt;Periodique : 50 ms &lt;br&gt;&lt;/div&gt;" style="text;html=1;strokeColor=none;fillColor=none;align=center;verticalAlign=middle;whiteSpace=wrap;rounded=0;fontStyle=2;fontSize=8;fontColor=#000000;opacity=50;" parent="yovDsSiOg5S1OaYQO72h-1" vertex="1">
          <mxGeometry x="219.5" y="10" width="85" height="20" as="geometry" />
        </mxCell>
        <mxCell id="yovDsSiOg5S1OaYQO72h-17" style="edgeStyle=orthogonalEdgeStyle;rounded=0;orthogonalLoop=1;jettySize=auto;html=1;exitX=1.003;exitY=0.607;exitDx=0;exitDy=0;entryX=0;entryY=1;entryDx=0;entryDy=0;exitPerimeter=0;curved=1;" parent="yovDsSiOg5S1OaYQO72h-1" source="yovDsSiOg5S1OaYQO72h-8" edge="1">
          <mxGeometry relative="1" as="geometry">
            <mxPoint x="310.00199999999995" y="304.1039999999999" as="sourcePoint" />
            <mxPoint x="451.7217395786431" y="58.99981462391142" as="targetPoint" />
            <Array as="points">
              <mxPoint x="314" y="259" />
              <mxPoint x="424" y="259" />
              <mxPoint x="424" y="77" />
              <mxPoint x="452" y="77" />
            </Array>
          </mxGeometry>
        </mxCell>
        <mxCell id="LV4q7qk2H9Wybud2gpiI-2" value="" style="group;align=left;fontSize=8;fontColor=#000000;opacity=50;" vertex="1" connectable="0" parent="yovDsSiOg5S1OaYQO72h-1">
          <mxGeometry x="428" y="314" width="362" height="350" as="geometry" />
        </mxCell>
        <mxCell id="LV4q7qk2H9Wybud2gpiI-3" value="" style="rounded=0;whiteSpace=wrap;html=1;rotation=90;fontSize=8;fontColor=#000000;opacity=50;" vertex="1" parent="LV4q7qk2H9Wybud2gpiI-2">
          <mxGeometry y="48" width="365" height="270" as="geometry" />
        </mxCell>
        <mxCell id="LV4q7qk2H9Wybud2gpiI-4" value="" style="rounded=0;whiteSpace=wrap;html=1;fontSize=8;fontColor=#000000;opacity=50;" vertex="1" parent="LV4q7qk2H9Wybud2gpiI-2">
          <mxGeometry x="47" width="160" height="40" as="geometry" />
        </mxCell>
        <mxCell id="LV4q7qk2H9Wybud2gpiI-5" value="" style="rounded=0;whiteSpace=wrap;html=1;fontSize=8;fontColor=#000000;opacity=50;" vertex="1" parent="LV4q7qk2H9Wybud2gpiI-2">
          <mxGeometry x="207" width="110" height="40" as="geometry" />
        </mxCell>
        <mxCell id="LV4q7qk2H9Wybud2gpiI-6" value="" style="rounded=0;whiteSpace=wrap;html=1;fontSize=8;fontColor=#000000;opacity=50;" vertex="1" parent="LV4q7qk2H9Wybud2gpiI-2">
          <mxGeometry x="47" y="40" width="270" height="40" as="geometry" />
        </mxCell>
        <mxCell id="LV4q7qk2H9Wybud2gpiI-7" value="Tache_gestion_affichege" style="text;html=1;strokeColor=none;fillColor=none;align=center;verticalAlign=middle;whiteSpace=wrap;rounded=0;fontStyle=1;fontSize=8;fontColor=#000000;opacity=50;" vertex="1" parent="LV4q7qk2H9Wybud2gpiI-2">
          <mxGeometry x="57" y="10" width="140" height="20" as="geometry" />
        </mxCell>
        <mxCell id="LV4q7qk2H9Wybud2gpiI-8" value="Priority : +1" style="text;html=1;strokeColor=none;fillColor=none;align=center;verticalAlign=middle;whiteSpace=wrap;rounded=0;fontStyle=2;fontSize=8;fontColor=#000000;opacity=50;" vertex="1" parent="LV4q7qk2H9Wybud2gpiI-2">
          <mxGeometry x="217" y="10" width="90" height="20" as="geometry" />
        </mxCell>
        <mxCell id="LV4q7qk2H9Wybud2gpiI-9" value="&lt;div&gt;gerer les affichages&lt;/div&gt;" style="text;html=1;strokeColor=none;fillColor=none;align=center;verticalAlign=middle;whiteSpace=wrap;rounded=0;fontSize=8;fontColor=#000000;opacity=50;" vertex="1" parent="LV4q7qk2H9Wybud2gpiI-2">
          <mxGeometry x="57" y="50" width="250" height="20" as="geometry" />
        </mxCell>
        <mxCell id="LV4q7qk2H9Wybud2gpiI-10" value="Description" style="text;html=1;strokeColor=none;fillColor=none;align=left;verticalAlign=top;whiteSpace=wrap;rounded=0;fontSize=8;fontColor=#000000;opacity=50;" vertex="1" parent="LV4q7qk2H9Wybud2gpiI-2">
          <mxGeometry x="57" y="90" width="250" height="260" as="geometry" />
        </mxCell>
        <mxCell id="yovDsSiOg5S1OaYQO72h-24" value="" style="group" parent="1" vertex="1" connectable="0">
          <mxGeometry x="671" y="98" width="72" height="78" as="geometry" />
        </mxCell>
        <mxCell id="yovDsSiOg5S1OaYQO72h-25" value="" style="ellipse;whiteSpace=wrap;html=1;aspect=fixed;align=left;" parent="yovDsSiOg5S1OaYQO72h-24" vertex="1">
          <mxGeometry x="9.9" y="10.725" width="62.1" height="62.1" as="geometry" />
        </mxCell>
        <mxCell id="yovDsSiOg5S1OaYQO72h-26" value="SPI&amp;nbsp; RX/TX " style="text;html=1;strokeColor=none;fillColor=none;align=center;verticalAlign=middle;whiteSpace=wrap;rounded=0;" parent="yovDsSiOg5S1OaYQO72h-24" vertex="1">
          <mxGeometry x="13.950000000000001" y="24.8625" width="54" height="39" as="geometry" />
        </mxCell>
        <mxCell id="yovDsSiOg5S1OaYQO72h-29" value="" style="group" parent="1" vertex="1" connectable="0">
          <mxGeometry x="99" y="448" width="95" height="41" as="geometry" />
        </mxCell>
        <mxCell id="yovDsSiOg5S1OaYQO72h-30" value="" style="group" parent="yovDsSiOg5S1OaYQO72h-29" vertex="1" connectable="0">
          <mxGeometry width="95" height="41" as="geometry" />
        </mxCell>
        <mxCell id="yovDsSiOg5S1OaYQO72h-31" value="" style="ellipse;whiteSpace=wrap;html=1;align=left;" parent="yovDsSiOg5S1OaYQO72h-30" vertex="1">
          <mxGeometry width="95" height="41" as="geometry" />
        </mxCell>
        <mxCell id="yovDsSiOg5S1OaYQO72h-32" value="Mutex Uart peripherals " style="text;html=1;strokeColor=none;fillColor=none;align=center;verticalAlign=middle;whiteSpace=wrap;rounded=0;" parent="yovDsSiOg5S1OaYQO72h-30" vertex="1">
          <mxGeometry x="7.307692307692308" y="13.66666666666667" width="80.38461538461539" height="13.66666666666667" as="geometry" />
        </mxCell>
        <mxCell id="yovDsSiOg5S1OaYQO72h-33" value="&lt;font style=&quot;font-size: 8px&quot; color=&quot;#cccccc&quot;&gt;&lt;i&gt;Mutex&lt;/i&gt;&lt;/font&gt;" style="text;html=1;strokeColor=none;fillColor=none;align=center;verticalAlign=middle;whiteSpace=wrap;rounded=0;dropTarget=0;connectable=0;" parent="yovDsSiOg5S1OaYQO72h-30" vertex="1">
          <mxGeometry x="25.57692307692312" y="-3.4166666666666674" width="43.846153846153854" height="13.66666666666667" as="geometry" />
        </mxCell>
        <mxCell id="yovDsSiOg5S1OaYQO72h-34" value="" style="group" parent="yovDsSiOg5S1OaYQO72h-30" vertex="1" connectable="0">
          <mxGeometry x="19.5" y="-41.75" width="56" height="52" as="geometry" />
        </mxCell>
        <mxCell id="yovDsSiOg5S1OaYQO72h-35" value="" style="ellipse;whiteSpace=wrap;html=1;aspect=fixed;align=left;" parent="yovDsSiOg5S1OaYQO72h-34" vertex="1">
          <mxGeometry width="52" height="52" as="geometry" />
        </mxCell>
        <mxCell id="yovDsSiOg5S1OaYQO72h-36" value="&lt;div&gt;UART&lt;/div&gt;&lt;div&gt;TX&lt;br&gt;&lt;/div&gt;" style="text;html=1;strokeColor=none;fillColor=none;align=center;verticalAlign=middle;whiteSpace=wrap;rounded=0;" parent="yovDsSiOg5S1OaYQO72h-34" vertex="1">
          <mxGeometry x="7" y="13" width="42" height="26" as="geometry" />
        </mxCell>
        <mxCell id="yovDsSiOg5S1OaYQO72h-37" value="" style="group" parent="1" vertex="1" connectable="0">
          <mxGeometry x="665" y="160" width="95" height="41" as="geometry" />
        </mxCell>
        <mxCell id="yovDsSiOg5S1OaYQO72h-38" value="" style="group" parent="yovDsSiOg5S1OaYQO72h-37" vertex="1" connectable="0">
          <mxGeometry width="95" height="41" as="geometry" />
        </mxCell>
        <mxCell id="yovDsSiOg5S1OaYQO72h-39" value="" style="ellipse;whiteSpace=wrap;html=1;align=left;" parent="yovDsSiOg5S1OaYQO72h-38" vertex="1">
          <mxGeometry width="95" height="41" as="geometry" />
        </mxCell>
        <mxCell id="yovDsSiOg5S1OaYQO72h-40" value="&lt;div&gt;Mutex SPI&lt;/div&gt;&lt;div&gt;&amp;nbsp;peripherals &lt;/div&gt;" style="text;html=1;strokeColor=none;fillColor=none;align=center;verticalAlign=middle;whiteSpace=wrap;rounded=0;" parent="yovDsSiOg5S1OaYQO72h-38" vertex="1">
          <mxGeometry x="7.307692307692308" y="13.66666666666667" width="80.38461538461539" height="13.66666666666667" as="geometry" />
        </mxCell>
        <mxCell id="yovDsSiOg5S1OaYQO72h-41" value="&lt;font style=&quot;font-size: 8px&quot; color=&quot;#cccccc&quot;&gt;&lt;i&gt;Mutex&lt;/i&gt;&lt;/font&gt;" style="text;html=1;strokeColor=none;fillColor=none;align=center;verticalAlign=middle;whiteSpace=wrap;rounded=0;dropTarget=0;connectable=0;" parent="yovDsSiOg5S1OaYQO72h-38" vertex="1">
          <mxGeometry x="25.57692307692312" y="-3.4166666666666674" width="43.846153846153854" height="13.66666666666667" as="geometry" />
        </mxCell>
        <mxCell id="yovDsSiOg5S1OaYQO72h-42" style="edgeStyle=orthogonalEdgeStyle;rounded=0;orthogonalLoop=1;jettySize=auto;html=1;exitX=1;exitY=0.25;exitDx=0;exitDy=0;entryX=0;entryY=0.5;entryDx=0;entryDy=0;curved=1;" parent="1" source="yovDsSiOg5S1OaYQO72h-8" target="yovDsSiOg5S1OaYQO72h-39" edge="1">
          <mxGeometry relative="1" as="geometry" />
        </mxCell>
        <mxCell id="yovDsSiOg5S1OaYQO72h-43" style="edgeStyle=orthogonalEdgeStyle;rounded=0;orthogonalLoop=1;jettySize=auto;html=1;curved=1;" parent="1" edge="1">
          <mxGeometry relative="1" as="geometry">
            <mxPoint x="139" y="492" as="targetPoint" />
            <Array as="points">
              <mxPoint x="245" y="588" />
              <mxPoint x="245" y="571" />
              <mxPoint x="161" y="571" />
              <mxPoint x="161" y="516" />
              <mxPoint x="139" y="516" />
            </Array>
            <mxPoint x="218" y="595" as="sourcePoint" />
          </mxGeometry>
        </mxCell>
        <mxCell id="yovDsSiOg5S1OaYQO72h-44" style="edgeStyle=orthogonalEdgeStyle;rounded=0;orthogonalLoop=1;jettySize=auto;html=1;exitX=-0.01;exitY=0.097;exitDx=0;exitDy=0;entryX=1;entryY=0;entryDx=0;entryDy=0;exitPerimeter=0;curved=1;" parent="1" source="yovDsSiOg5S1OaYQO72h-8" target="yovDsSiOg5S1OaYQO72h-31" edge="1">
          <mxGeometry relative="1" as="geometry" />
        </mxCell>
        <mxCell id="yovDsSiOg5S1OaYQO72h-45" style="edgeStyle=orthogonalEdgeStyle;rounded=0;orthogonalLoop=1;jettySize=auto;html=1;exitX=-0.01;exitY=0.432;exitDx=0;exitDy=0;entryX=0.946;entryY=0.308;entryDx=0;entryDy=0;entryPerimeter=0;exitPerimeter=0;curved=1;" parent="1" source="yovDsSiOg5S1OaYQO72h-8" target="yovDsSiOg5S1OaYQO72h-31" edge="1">
          <mxGeometry relative="1" as="geometry" />
        </mxCell>
        <mxCell id="yovDsSiOg5S1OaYQO72h-46" style="edgeStyle=orthogonalEdgeStyle;rounded=0;orthogonalLoop=1;jettySize=auto;html=1;exitX=1;exitY=0.75;exitDx=0;exitDy=0;curved=1;entryX=0.282;entryY=0.935;entryDx=0;entryDy=0;entryPerimeter=0;" parent="1" source="yovDsSiOg5S1OaYQO72h-8" target="yovDsSiOg5S1OaYQO72h-39" edge="1">
          <mxGeometry relative="1" as="geometry">
            <mxPoint x="707.4782608695652" y="207.91304347826087" as="targetPoint" />
            <Array as="points">
              <mxPoint x="567" y="523" />
              <mxPoint x="567" y="431" />
              <mxPoint x="690" y="431" />
              <mxPoint x="690" y="208" />
              <mxPoint x="692" y="208" />
            </Array>
          </mxGeometry>
        </mxCell>
        <mxCell id="yovDsSiOg5S1OaYQO72h-10" value="" style="group;align=left;fontSize=8;fontColor=#000000;opacity=50;" parent="1" vertex="1" connectable="0">
          <mxGeometry x="1924" y="641" width="362" height="350" as="geometry" />
        </mxCell>
        <mxCell id="yovDsSiOg5S1OaYQO72h-11" value="" style="rounded=0;whiteSpace=wrap;html=1;rotation=90;fontSize=8;opacity=50;fillColor=#f5f5f5;gradientColor=#b3b3b3;strokeColor=#666666;" parent="yovDsSiOg5S1OaYQO72h-10" vertex="1">
          <mxGeometry x="130.07" y="-82.06" width="104.87" height="270" as="geometry" />
        </mxCell>
        <mxCell id="yovDsSiOg5S1OaYQO72h-12" value="" style="rounded=0;whiteSpace=wrap;html=1;fontSize=8;fontColor=#000000;opacity=50;" parent="yovDsSiOg5S1OaYQO72h-10" vertex="1">
          <mxGeometry x="47" width="160" height="40" as="geometry" />
        </mxCell>
        <mxCell id="yovDsSiOg5S1OaYQO72h-13" value="" style="rounded=0;whiteSpace=wrap;html=1;fontSize=8;fontColor=#000000;opacity=50;" parent="yovDsSiOg5S1OaYQO72h-10" vertex="1">
          <mxGeometry x="207" width="110" height="40" as="geometry" />
        </mxCell>
        <mxCell id="yovDsSiOg5S1OaYQO72h-14" value="IDLE" style="text;html=1;strokeColor=none;fillColor=none;align=center;verticalAlign=middle;whiteSpace=wrap;rounded=0;fontStyle=1;fontSize=8;fontColor=#000000;opacity=50;" parent="yovDsSiOg5S1OaYQO72h-10" vertex="1">
          <mxGeometry x="57" y="10" width="140" height="20" as="geometry" />
        </mxCell>
        <mxCell id="yovDsSiOg5S1OaYQO72h-15" value="Lowest Priority: 0" style="text;html=1;strokeColor=none;fillColor=none;align=center;verticalAlign=middle;whiteSpace=wrap;rounded=0;fontStyle=2;fontSize=8;fontColor=#000000;opacity=50;" parent="yovDsSiOg5S1OaYQO72h-10" vertex="1">
          <mxGeometry x="217" y="10" width="90" height="20" as="geometry" />
        </mxCell>
        <mxCell id="yovDsSiOg5S1OaYQO72h-16" value="Principalement dans ce cas, économiser l&#39;énergie. Voir même si on peut éteindre le radar sans&amp;nbsp; avoir besoin de refaire la calibration." style="text;html=1;strokeColor=none;fillColor=none;align=left;verticalAlign=top;whiteSpace=wrap;rounded=0;fontSize=8;fontColor=#000000;opacity=50;" parent="yovDsSiOg5S1OaYQO72h-10" vertex="1">
          <mxGeometry x="57" y="49" width="250" height="144" as="geometry" />
        </mxCell>
      </root>
    </mxGraphModel>
  </diagram>
</mxfile>
